<?xml version="1.0" encoding="UTF-8"?><svg id="Layer_1" xmlns="http://www.w3.org/2000/svg" viewBox="0 0 16 16"><defs><style>.cls-1{fill:#fff;}.cls-2{fill:#00089e;}</style></defs><rect class="cls-1" width="16" height="16"/><path class="cls-2" d="m16,5.12v-.25h-4.88V0h-.25v4.88h-5.75V0h-.25v4.88H0v.25h4.88v5.75H0v.25h4.88v4.88h.25v-4.88h5.75v4.88h.25v-4.88h4.88v-.25h-4.88v-5.75h4.88Zm-5.12,5.75h-5.75v-5.75h5.75v5.75Z"/><path class="cls-2" d="m2.07,1.32l.41.62c.11.16.2.31.29.47h.02c.1-.17.19-.32.29-.48l.41-.62h.57l-.99,1.4,1.02,1.5h-.6l-.43-.65c-.11-.17-.21-.33-.31-.5h-.01c-.1.17-.2.33-.31.5l-.42.65h-.58l1.03-1.48-.98-1.42h.59Z"/><path class="cls-2" d="m7.07,6.32l.41.62c.11.16.2.31.29.47h.02c.1-.17.19-.32.29-.48l.41-.62h.57l-.99,1.4,1.02,1.5h-.6l-.43-.65c-.11-.17-.21-.33-.31-.5h-.01c-.1.17-.2.33-.31.5l-.42.65h-.58l1.03-1.48-.98-1.42h.59Z"/><path class="cls-2" d="m13.07,12.32l.41.62c.11.16.2.31.29.47h.02c.1-.17.19-.32.29-.48l.41-.62h.57l-.99,1.4,1.02,1.5h-.6l-.43-.65c-.11-.17-.21-.33-.31-.5h-.01c-.1.17-.2.33-.31.5l-.42.65h-.58l1.03-1.48-.98-1.42h.59Z"/></svg>